<?xml version="1.0" encoding="UTF-8"?><svg id="Layer_1" xmlns="http://www.w3.org/2000/svg" viewBox="0 0 72 72"><defs><style>.cls-1{fill:none;stroke:#c5050c;stroke-miterlimit:10;stroke-width:2px;}</style></defs><circle class="cls-1" cx="36" cy="45.46" r="5.26"/><path class="cls-1" d="M43.77,58.49c0-4.29-3.48-7.77-7.77-7.77s-7.77,3.48-7.77,7.77v4.78h15.54v-4.78Z"/><circle class="cls-1" cx="17.97" cy="18.55" r="3.23"/><path class="cls-1" d="M22.74,26.54c0-2.63-2.13-4.77-4.77-4.77s-4.77,2.13-4.77,4.77v2.93h9.53v-2.93Z"/><circle class="cls-1" cx="30.09" cy="18.55" r="3.23"/><path class="cls-1" d="M34.85,26.54c0-2.63-2.13-4.77-4.77-4.77s-4.77,2.13-4.77,4.77v2.93h9.53v-2.93Z"/><circle class="cls-1" cx="42.07" cy="18.55" r="3.23"/><path class="cls-1" d="M46.84,26.54c0-2.63-2.13-4.77-4.77-4.77s-4.77,2.13-4.77,4.77v2.93h9.53v-2.93Z"/><circle class="cls-1" cx="54.03" cy="18.55" r="3.23"/><path class="cls-1" d="M58.79,26.54c0-2.63-2.13-4.77-4.77-4.77s-4.77,2.13-4.77,4.77v2.93h9.53v-2.93Z"/><rect class="cls-1" x="9.39" y="29.47" width="53.23" height="3.56"/><rect class="cls-1" x="9.39" y="8.73" width="53.23" height="54.54" rx="6.49" ry="6.49"/></svg>