<?xml version="1.0" encoding="UTF-8"?><svg id="Layer_1" xmlns="http://www.w3.org/2000/svg" viewBox="0 0 72 72"><defs><style>.cls-1{fill:none;stroke:#c5050c;stroke-miterlimit:10;stroke-width:2px;}</style></defs><line class="cls-1" x1="16.62" y1="50.75" x2="55.38" y2="50.75"/><line class="cls-1" x1="19.87" y1="50.75" x2="19.87" y2="66.12"/><line class="cls-1" x1="36" y1="50.75" x2="36" y2="66.12"/><line class="cls-1" x1="30.62" y1="50.75" x2="30.62" y2="66.12"/><line class="cls-1" x1="25.24" y1="50.75" x2="25.24" y2="66.12"/><line class="cls-1" x1="46.76" y1="50.75" x2="46.76" y2="66.12"/><line class="cls-1" x1="41.38" y1="50.75" x2="41.38" y2="66.12"/><line class="cls-1" x1="52.13" y1="50.75" x2="52.13" y2="66.12"/><line class="cls-1" x1="19.83" y1="43.07" x2="52.17" y2="43.07"/><polygon class="cls-1" points="39.34 25.83 32.66 25.83 32.66 22.29 39.34 22.29 39.34 25.49 39.34 25.83"/><polyline class="cls-1" points="33.89 22.29 33.89 14.87 38.11 14.87 38.11 22.29"/><line class="cls-1" x1="36" y1="15.05" x2="36" y2="4.88"/><path class="cls-1" d="M32.82,25.83c-3.64,1.49-9.38,6.88-10.46,17.24"/><path class="cls-1" d="M39.55,25.83c3.64,1.49,9.01,6.88,10.09,17.24"/><path class="cls-1" d="M32.32,41.15s1.4-10.27,3.83-15.34"/><path class="cls-1" d="M27.23,41.15s1.37-12.55,8.92-15.34"/><path class="cls-1" d="M40.03,41.15s-1.51-10.27-3.95-15.34"/><path class="cls-1" d="M45.11,41.15s-1.48-12.55-9.03-15.34"/><line class="cls-1" x1="36.15" y1="25.81" x2="36.21" y2="41.15"/><line class="cls-1" x1="36.03" y1="44.85" x2="36.03" y2="49.06"/><line class="cls-1" x1="41.39" y1="44.85" x2="41.39" y2="49.06"/><line class="cls-1" x1="30.66" y1="44.85" x2="30.66" y2="49.06"/><line class="cls-1" x1="25.29" y1="44.85" x2="25.29" y2="49.06"/><line class="cls-1" x1="46.76" y1="44.85" x2="46.76" y2="49.06"/><line class="cls-1" x1="22.36" y1="50.75" x2="22.36" y2="43.07"/><line class="cls-1" x1="49.64" y1="50.75" x2="49.64" y2="43.07"/></svg>